<svg xmlns="http://www.w3.org/2000/svg" width="36" height="36" viewBox="0 0 36 36" fill="none">
    <circle cx="18" cy="18" r="18" transform="matrix(-1 0 0 1 36 0)" fill="#E9EDEF"/>
    <path d="M13.2795 18.3659H23.7195C23.887 18.349 24.043 18.26 24.1566 18.1163C24.2703 17.9727 24.3333 17.7849 24.3333 17.5901C24.3333 17.3952 24.2703 17.2074 24.1566 17.0638C24.043 16.9201 23.887 16.8311 23.7195 16.8142H13.2795L16.8292 12.7015C16.9025 12.6325 16.9625 12.5463 17.0052 12.4486C17.0478 12.3509 17.0722 12.2439 17.0768 12.1346C17.0814 12.0252 17.066 11.916 17.0317 11.814C16.9973 11.712 16.9448 11.6195 16.8776 11.5426C16.8103 11.4657 16.7299 11.4061 16.6414 11.3677C16.5529 11.3293 16.4585 11.3129 16.3642 11.3197C16.2699 11.3264 16.1779 11.3561 16.0942 11.4069C16.0104 11.4576 15.9369 11.5282 15.8783 11.6141L11.1904 17.0459C11.0683 17.1913 11 17.3862 11 17.5891C11 17.792 11.0683 17.9869 11.1904 18.1323L15.8783 23.565C15.9367 23.6514 16.0102 23.7225 16.094 23.7737C16.1777 23.8249 16.2699 23.855 16.3644 23.862C16.4589 23.8691 16.5536 23.8529 16.6423 23.8145C16.731 23.7761 16.8118 23.7165 16.8792 23.6394C16.9466 23.5624 16.9993 23.4697 17.0336 23.3674C17.068 23.2652 17.0833 23.1557 17.0786 23.0461C17.0738 22.9365 17.0492 22.8292 17.0062 22.7315C16.9632 22.6337 16.9029 22.5475 16.8292 22.4786L13.2727 18.3659H13.2795Z" fill="#4B5354"/>
</svg>