<svg xmlns="http://www.w3.org/2000/svg" width="36" height="36" viewBox="0 0 36 36" fill="none">
    <circle cx="18" cy="18" r="18" fill="#E9EDEF"/>
    <path d="M22.7205 18.3659H12.2805C12.113 18.349 11.957 18.26 11.8434 18.1163C11.7297 17.9727 11.6667 17.7849 11.6667 17.5901C11.6667 17.3952 11.7297 17.2074 11.8434 17.0638C11.957 16.9201 12.113 16.8311 12.2805 16.8142H22.7205L19.1708 12.7015C19.0975 12.6325 19.0375 12.5463 18.9948 12.4486C18.9522 12.3509 18.9278 12.2439 18.9232 12.1346C18.9186 12.0252 18.934 11.916 18.9683 11.814C19.0027 11.712 19.0552 11.6195 19.1224 11.5426C19.1897 11.4657 19.2701 11.4061 19.3586 11.3677C19.4471 11.3293 19.5415 11.3129 19.6358 11.3197C19.7301 11.3264 19.8221 11.3561 19.9058 11.4069C19.9896 11.4576 20.0631 11.5282 20.1217 11.6141L24.8096 17.0459C24.9317 17.1913 25 17.3862 25 17.5891C25 17.792 24.9317 17.9869 24.8096 18.1323L20.1217 23.565C20.0633 23.6514 19.9898 23.7225 19.906 23.7737C19.8223 23.8249 19.7301 23.855 19.6356 23.862C19.5411 23.8691 19.4464 23.8529 19.3577 23.8145C19.269 23.7761 19.1882 23.7165 19.1208 23.6394C19.0534 23.5624 19.0007 23.4697 18.9664 23.3674C18.932 23.2652 18.9167 23.1557 18.9214 23.0461C18.9262 22.9365 18.9508 22.8292 18.9938 22.7315C19.0368 22.6337 19.0971 22.5475 19.1708 22.4786L22.7273 18.3659H22.7205Z" fill="#4B5354"/>
</svg>