<svg xmlns="http://www.w3.org/2000/svg" width="32" height="32" viewBox="0 0 32 32" fill="none">
    <path d="M7.80801 9.12002C7.65569 9.03787 7.48465 8.99666 7.31163 9.00042C7.1386 9.00418 6.96952 9.05278 6.8209 9.14146C6.67229 9.23014 6.54924 9.35588 6.46378 9.50637C6.37831 9.65686 6.33337 9.82695 6.33334 10V22.6667C6.33334 22.9319 6.4387 23.1863 6.62624 23.3738C6.81377 23.5613 7.06813 23.6667 7.33334 23.6667C7.59856 23.6667 7.85291 23.5613 8.04045 23.3738C8.22799 23.1863 8.33334 22.9319 8.33334 22.6667V11.6747L15.5253 15.5467C15.8213 15.7067 16.1787 15.7067 16.4747 15.5467L23.6667 11.6747V22.6667C23.6667 22.9319 23.772 23.1863 23.9596 23.3738C24.1471 23.5613 24.4015 23.6667 24.6667 23.6667C24.9319 23.6667 25.1862 23.5613 25.3738 23.3738C25.5613 23.1863 25.6667 22.9319 25.6667 22.6667V10C25.6666 9.82695 25.6217 9.65686 25.5362 9.50637C25.4508 9.35588 25.3277 9.23014 25.1791 9.14146C25.0305 9.05278 24.8614 9.00418 24.6884 9.00042C24.5154 8.99666 24.3443 9.03787 24.192 9.12002L16 13.5307L7.80801 9.12002Z" fill="#4B5354"/>
    <path fill-rule="evenodd" clip-rule="evenodd" d="M23.08 4.96264C18.3694 4.54151 13.6306 4.54151 8.92001 4.96264L6.89601 5.14264C5.84173 5.23678 4.84996 5.68355 4.08087 6.41079C3.31178 7.13802 2.81027 8.10327 2.65734 9.15064C1.99325 13.6927 1.99325 18.3072 2.65734 22.8493C2.8106 23.8966 3.31242 24.8617 4.08176 25.5887C4.85109 26.3157 5.84302 26.7622 6.89734 26.856L8.91868 27.0373C13.6307 27.4586 18.3693 27.4586 23.0813 27.0373L25.104 26.856C26.1581 26.7619 27.1497 26.3153 27.9188 25.5883C28.6878 24.8614 29.1895 23.8964 29.3427 22.8493C30.0068 18.3072 30.0068 13.6927 29.3427 9.15064C29.1897 8.10306 28.688 7.13766 27.9186 6.4104C27.1493 5.68314 26.1572 5.2365 25.1027 5.14264L23.0813 4.96264H23.08ZM9.09868 6.95464C13.6913 6.54402 18.3114 6.54402 22.904 6.95464L24.9267 7.13597C25.533 7.18983 26.1035 7.44652 26.546 7.86457C26.9885 8.28263 27.2772 8.83765 27.3653 9.43997C28.0014 13.7902 28.0014 18.2098 27.3653 22.56C27.2772 23.1623 26.9885 23.7173 26.546 24.1354C26.1035 24.5534 25.533 24.8101 24.9267 24.864L22.904 25.0453C18.312 25.456 13.6907 25.456 9.09868 25.0453L7.07601 24.864C6.46965 24.8101 5.89915 24.5534 5.45666 24.1354C5.01416 23.7173 4.72552 23.1623 4.63734 22.56C4.0013 18.2098 4.0013 13.7902 4.63734 9.43997C4.72552 8.83765 5.01416 8.28263 5.45666 7.86457C5.89915 7.44652 6.46965 7.18983 7.07601 7.13597L9.09868 6.95464Z" fill="#4B5354"/>
</svg>