<svg xmlns="http://www.w3.org/2000/svg" width="14" height="14" viewBox="0 0 14 14" fill="none">
    <path d="M10.9535 13.5622C10.3817 13.5622 9.57835 13.3554 8.37542 12.6833C6.91263 11.863 5.78118 11.1057 4.3263 9.65461C2.92356 8.25276 2.24095 7.34514 1.28558 5.60666C0.206278 3.64377 0.390263 2.61486 0.595927 2.17512C0.840849 1.64953 1.20237 1.33518 1.66966 1.02317C1.93507 0.84927 2.21595 0.700202 2.50872 0.577853C2.53802 0.565255 2.56526 0.553244 2.58958 0.542404C2.7346 0.477072 2.95432 0.378341 3.23265 0.48381C3.41839 0.553537 3.58421 0.696213 3.84378 0.95256C4.3761 1.47756 5.10354 2.6468 5.3719 3.22102C5.55208 3.60803 5.67132 3.8635 5.67161 4.15002C5.67161 4.48547 5.50286 4.74416 5.29807 5.02336C5.2597 5.0758 5.22161 5.1259 5.1847 5.17453C4.96175 5.4675 4.91282 5.55217 4.94505 5.70334C5.01038 6.00715 5.49759 6.91154 6.29827 7.71047C7.09895 8.5094 7.97727 8.96584 8.28225 9.03088C8.43987 9.06457 8.5263 9.01359 8.82864 8.78274C8.872 8.74963 8.91653 8.71535 8.96311 8.68108C9.27542 8.44875 9.5221 8.2844 9.84964 8.2844H9.85139C10.1365 8.2844 10.3805 8.40803 10.7848 8.61194C11.3121 8.87795 12.5165 9.59602 13.0448 10.1289C13.3017 10.3879 13.4449 10.5531 13.515 10.7386C13.6204 11.0178 13.5211 11.2366 13.4564 11.3831C13.4455 11.4074 13.4335 11.4341 13.4209 11.4637C13.2976 11.7559 13.1477 12.0362 12.973 12.301C12.6616 12.7668 12.346 13.1275 11.8193 13.3727C11.5488 13.5006 11.2527 13.5654 10.9535 13.5622Z" fill="white"/>
</svg>