<svg width="13" height="8" viewBox="0 0 13 8" fill="none" xmlns="http://www.w3.org/2000/svg">
<path fill-rule="evenodd" clip-rule="evenodd" d="M4.42283 7.80047C4.17129 8.06316 3.75975 8.06696 3.50363 7.80897L0.194539 4.47563C0.0700989 4.35028 0 4.17889 0 4C0 3.82111 0.0700989 3.64972 0.194539 3.52437L3.50363 0.191034C3.75975 -0.0669594 4.17129 -0.0631561 4.42283 0.199528C4.67438 0.462213 4.67067 0.884305 4.41455 1.1423L2.23945 3.33333L12.35 3.33333C12.709 3.33333 13 3.63181 13 4C13 4.36819 12.709 4.66667 12.35 4.66667L2.23945 4.66667L4.41455 6.8577C4.67067 7.11569 4.67438 7.53779 4.42283 7.80047Z" fill="#2C2C2C"/>
</svg>
