<svg xmlns="http://www.w3.org/2000/svg" width="32" height="32" viewBox="0 0 32 32" fill="none">
    <path fill-rule="evenodd" clip-rule="evenodd" d="M7.71734 18.6933C7.77463 18.7124 7.83354 18.7263 7.89334 18.7347C8.27057 19.6236 8.64568 20.5133 9.01867 21.404C9.68934 23.0067 10.3653 24.6573 10.5133 25.132C10.6987 25.716 10.8933 26.1133 11.1067 26.3853C11.2173 26.524 11.344 26.6467 11.4933 26.74C11.5711 26.7887 11.6544 26.8281 11.7413 26.8573C12.168 27.0173 12.5573 26.9507 12.8013 26.8693C12.9445 26.8205 13.0808 26.7532 13.2067 26.6693L13.2133 26.6667L16.9813 24.3173L21.3347 27.6533C21.3987 27.7027 21.468 27.744 21.5427 27.7773C22.0653 28.004 22.572 28.084 23.0493 28.02C23.524 27.9533 23.9013 27.7547 24.1827 27.5293C24.5057 27.269 24.7633 26.9365 24.9347 26.5587L24.9467 26.5293L24.9507 26.5187L24.9533 26.5133V26.5107L24.9547 26.5093C24.9778 26.452 24.9957 26.3926 25.008 26.332L28.9813 6.29867C28.9939 6.23454 29.0001 6.16934 29 6.104C29 5.51734 28.7787 4.95867 28.26 4.62134C27.8147 4.332 27.32 4.31867 27.0067 4.34267C26.6707 4.36934 26.3587 4.452 26.1493 4.51867C26.0322 4.55581 25.9165 4.59762 25.8027 4.644L25.788 4.65067L3.50267 13.392L3.5 13.3933C3.4246 13.4211 3.35032 13.4518 3.27734 13.4853C3.10062 13.5648 2.9311 13.6594 2.77067 13.768C2.468 13.9747 1.77067 14.5427 1.88934 15.4813C1.98267 16.228 2.49467 16.688 2.808 16.9093C2.97867 17.0307 3.14134 17.1173 3.26134 17.1747C3.31467 17.2013 3.42934 17.2467 3.47867 17.268L3.492 17.272L7.71734 18.6933ZM26.568 6.49067H26.5653C26.5539 6.49576 26.5423 6.50065 26.5307 6.50534L4.21867 15.2587C4.20719 15.2633 4.19563 15.2678 4.184 15.272L4.17067 15.276C4.12991 15.292 4.08987 15.3098 4.05067 15.3293C4.08778 15.3506 4.12606 15.3697 4.16534 15.3867L8.35467 16.7973C8.42953 16.8226 8.50114 16.8566 8.568 16.8987L22.404 8.79867L22.4173 8.792C22.4711 8.75934 22.5262 8.72909 22.5827 8.70134C22.6787 8.652 22.832 8.58 23.0053 8.52667C23.1253 8.48934 23.4813 8.384 23.8653 8.508C24.069 8.5722 24.2505 8.69239 24.3892 8.85483C24.5278 9.01727 24.618 9.21543 24.6493 9.42667C24.699 9.61167 24.7004 9.80632 24.6533 9.992C24.56 10.3587 24.304 10.644 24.0693 10.8627C23.8693 11.0493 21.276 13.5507 18.7173 16.02L15.2333 19.38L14.6133 19.98L22.4427 25.9827C22.5483 26.027 22.6631 26.0453 22.7773 26.036C22.8349 26.0282 22.889 26.0041 22.9333 25.9667C22.9874 25.921 23.0338 25.867 23.0707 25.8067L23.0733 25.8053L26.9267 6.37467C26.8053 6.40387 26.6863 6.4422 26.5707 6.48934L26.568 6.49067ZM15.2867 23.016L13.724 21.8187L13.3453 24.2253L15.2867 23.016ZM12.2907 19.4427L13.844 17.9427L17.328 14.58L18.6253 13.3293L9.932 18.4187L9.97867 18.528C10.5269 19.8232 11.0692 21.121 11.6053 22.4213L11.9827 20.0213C12.0168 19.7987 12.1254 19.5956 12.2907 19.4427Z" fill="#4B5354"/>
</svg>