<svg xmlns="http://www.w3.org/2000/svg" width="32" height="32" viewBox="0 0 32 32" fill="none">
    <path d="M25.36 6.63333C23.508 4.78212 21.1486 3.52167 18.5802 3.01136C16.0118 2.50105 13.3498 2.7638 10.9308 3.76639C8.5117 4.76898 6.44427 6.46637 4.98989 8.64393C3.53551 10.8215 2.7595 13.3814 2.75999 16C2.75999 19.5121 4.15471 22.8804 6.6375 25.3644C9.12029 27.8485 12.4879 29.2449 16 29.2467C17.738 29.2474 19.4593 28.9077 21.0667 28.2467C22.6689 27.5703 24.1264 26.5926 25.36 25.3667C26.5902 24.1367 27.566 22.6764 28.2318 21.0693C28.8976 19.4621 29.2403 17.7396 29.2403 16C29.2403 14.2604 28.8976 12.5378 28.2318 10.9307C27.566 9.32355 26.5902 7.8633 25.36 6.63333ZM24.4267 24.42C22.5201 26.3348 20.0184 27.5433 17.3333 27.8467V19.1H19.84C20.1936 19.1 20.5328 18.9595 20.7828 18.7095C21.0329 18.4594 21.1733 18.1203 21.1733 17.7667C21.1733 17.413 21.0329 17.0739 20.7828 16.8239C20.5328 16.5738 20.1936 16.4333 19.84 16.4333H17.3333V12.78C17.3333 12.4264 17.4738 12.0872 17.7239 11.8372C17.9739 11.5871 18.313 11.4467 18.6667 11.4467H20.2667C20.6203 11.4467 20.9594 11.3062 21.2095 11.0561C21.4595 10.8061 21.6 10.4669 21.6 10.1133C21.6 9.7597 21.4595 9.42057 21.2095 9.17052C20.9594 8.92047 20.6203 8.77999 20.2667 8.77999H18C17.1159 8.77999 16.2681 9.13118 15.643 9.7563C15.0179 10.3814 14.6667 11.2293 14.6667 12.1133V16.4333H12.1733C11.8197 16.4333 11.4806 16.5738 11.2305 16.8239C10.9805 17.0739 10.84 17.413 10.84 17.7667C10.84 18.1203 10.9805 18.4594 11.2305 18.7095C11.4806 18.9595 11.8197 19.1 12.1733 19.1H14.6667V27.8467C12.1905 27.5642 9.8657 26.5109 8.02059 24.8356C6.17549 23.1602 4.90335 20.9476 4.38386 18.5101C3.86438 16.0726 4.12381 13.5336 5.1255 11.2515C6.1272 8.9695 7.82054 7.05983 9.96633 5.79229C12.1121 4.52474 14.6019 3.96337 17.084 4.18748C19.5661 4.41159 21.9151 5.40985 23.7992 7.04125C25.6832 8.67265 27.0071 10.8547 27.5838 13.2793C28.1606 15.7039 27.961 18.2483 27.0133 20.5533C26.4097 21.9976 25.5312 23.3108 24.4267 24.42Z" fill="#4B5354"/>
</svg>