
<svg width="29" height="30" viewBox="0 0 29 30" fill="none" xmlns="http://www.w3.org/2000/svg">
    <path d="M26.4286 8.57144H10.7143M7.85716 8.57144H3.57144M26.4286 22.8572H10.7143M7.85716 22.8572H3.57144M19.2857 15.7143H3.57144M26.4286 15.7143H22.1429M9.28573 5.71429C9.66461 5.71429 10.028 5.8648 10.2959 6.13271C10.5638 6.40062 10.7143 6.76399 10.7143 7.14287V10C10.7143 10.3789 10.5638 10.7423 10.2959 11.0102C10.028 11.2781 9.66461 11.4286 9.28573 11.4286C8.90685 11.4286 8.54348 11.2781 8.27558 11.0102C8.00767 10.7423 7.85716 10.3789 7.85716 10V7.14287C7.85716 6.76399 8.00767 6.40062 8.27558 6.13271C8.54348 5.8648 8.90685 5.71429 9.28573 5.71429ZM9.28573 20C9.66461 20 10.028 20.1505 10.2959 20.4184C10.5638 20.6863 10.7143 21.0497 10.7143 21.4286V24.2857C10.7143 24.6646 10.5638 25.028 10.2959 25.2959C10.028 25.5638 9.66461 25.7143 9.28573 25.7143C8.90685 25.7143 8.54348 25.5638 8.27558 25.2959C8.00767 25.028 7.85716 24.6646 7.85716 24.2857V21.4286C7.85716 21.0497 8.00767 20.6863 8.27558 20.4184C8.54348 20.1505 8.90685 20 9.28573 20ZM20.7143 12.8572C21.0932 12.8572 21.4565 13.0077 21.7245 13.2756C21.9924 13.5435 22.1429 13.9068 22.1429 14.2857V17.1429C22.1429 17.5217 21.9924 17.8851 21.7245 18.153C21.4565 18.4209 21.0932 18.5714 20.7143 18.5714C20.3354 18.5714 19.9721 18.4209 19.7041 18.153C19.4362 17.8851 19.2857 17.5217 19.2857 17.1429V14.2857C19.2857 13.9068 19.4362 13.5435 19.7041 13.2756C19.9721 13.0077 20.3354 12.8572 20.7143 12.8572Z" stroke="#2C2C2C" stroke-linecap="round" stroke-linejoin="round"/>
</svg>
