<svg xmlns="http://www.w3.org/2000/svg" width="96" height="96" viewBox="0 0 96 96" fill="none">
    <path opacity="0.2" fill-rule="evenodd" clip-rule="evenodd" d="M33.8496 29.28C28.584 30.648 24 34.9728 24 43.1808C24 53.9328 32.304 65.1168 52.8 76.1712C73.296 65.112 81.6 53.9328 81.6 43.1808C81.6 34.9728 77.016 30.6528 71.7504 29.28C66.1104 27.8112 59.9232 29.7408 56.76 34.3584C56.3192 35.0019 55.7282 35.5283 55.0382 35.892C54.3482 36.2557 53.58 36.4457 52.8 36.4457C52.02 36.4457 51.2518 36.2557 50.5618 35.892C49.8718 35.5283 49.2808 35.0019 48.84 34.3584C45.6768 29.7408 39.4896 27.8112 33.8496 29.28ZM52.8 24.5664C46.824 19.56 38.5872 18.1248 31.4304 19.9872C22.1376 22.4064 14.4 30.3984 14.4 43.1808C14.4 60.1008 27.9024 74.1216 50.592 85.8624C51.2743 86.2159 52.0315 86.4004 52.8 86.4004C53.5685 86.4004 54.3257 86.2159 55.008 85.8624C77.6976 74.1216 91.2 60.1008 91.2 43.1808C91.2 30.3984 83.4624 22.4064 74.1696 19.9872C67.0176 18.1248 58.776 19.5552 52.8 24.5664Z" fill="#4B5354"/>
    <path fill-rule="evenodd" clip-rule="evenodd" d="M26.9664 22.1664C20.088 23.8368 14.4 29.136 14.4 38.3808C14.4 50.688 24.8112 62.7312 48 74.1312C71.1888 62.7312 81.6 50.688 81.6 38.3808C81.6 29.1408 75.912 23.8368 69.0336 22.1664C61.9728 20.448 54.048 22.6608 49.9344 28.2624C49.7114 28.566 49.4202 28.8129 49.0841 28.983C48.7481 29.1531 48.3767 29.2418 48 29.2418C47.6233 29.2418 47.252 29.1531 46.9159 28.983C46.5799 28.8129 46.2886 28.566 46.0656 28.2624C41.952 22.6608 34.0272 20.448 26.9664 22.1664ZM48 23.1744C42.288 17.448 33.4464 15.648 25.8336 17.496C17.112 19.6224 9.60001 26.6208 9.60001 38.3808C9.60001 53.9328 22.8768 67.3344 46.9584 78.96C47.2833 79.1165 47.6394 79.1978 48 79.1978C48.3607 79.1978 48.7167 79.1165 49.0416 78.96C73.1232 67.3344 86.4 53.9376 86.4 38.3808C86.4 26.6208 78.888 19.6224 70.1664 17.5008C62.5536 15.6528 53.7168 17.4576 48 23.1744Z" fill="#4B5354"/>
</svg>