<svg width="17" height="17" viewBox="0 0 17 17" fill="none" xmlns="http://www.w3.org/2000/svg">
<path fill-rule="evenodd" clip-rule="evenodd" d="M12.5181 0.390381H4.51807C2.31827 0.390381 0.518066 2.18978 0.518066 4.39038V12.3904C0.518066 14.5902 2.31827 16.3904 4.51807 16.3904H12.5181C14.7179 16.3904 16.5181 14.5902 16.5181 12.3904V4.39038C16.5181 2.18978 14.7179 0.390381 12.5181 0.390381ZM8.51797 11.7236C6.67677 11.7236 5.18457 10.2308 5.18457 8.39038C5.18457 6.54918 6.67677 5.05698 8.51797 5.05698C10.3584 5.05698 11.8514 6.54918 11.8514 8.39038C11.8514 10.2308 10.3584 11.7236 8.51797 11.7236ZM11.8516 4.05698C11.8516 4.60918 12.2988 5.05698 12.8516 5.05698C13.4044 5.05698 13.8516 4.60918 13.8516 4.05698C13.8516 3.50478 13.4044 3.05698 12.8516 3.05698C12.2988 3.05698 11.8516 3.50478 11.8516 4.05698Z" fill="#2C2C2C"/>
</svg>
