<svg xmlns="http://www.w3.org/2000/svg" width="20" height="21" viewBox="0 0 20 21" fill="none">
  <path d="M18.75 7.62952C18.75 13.0983 10.6414 17.5248 10.2961 17.7076C10.2051 17.7566 10.1033 17.7822 10 17.7822C9.89665 17.7822 9.79492 17.7566 9.70391 17.7076C9.35859 17.5248 1.25 13.0983 1.25 7.62952C1.25145 6.34532 1.76223 5.11413 2.6703 4.20607C3.57837 3.298 4.80955 2.78721 6.09375 2.78577C7.70703 2.78577 9.11953 3.47952 10 4.65217C10.8805 3.47952 12.293 2.78577 13.9062 2.78577C15.1904 2.78721 16.4216 3.298 17.3297 4.20607C18.2378 5.11413 18.7486 6.34532 18.75 7.62952Z" fill="#251ADD"/>
</svg>