<svg width="17" height="17" viewBox="0 0 17 17" fill="none" xmlns="http://www.w3.org/2000/svg">
<path d="M14.5413 4.37785C14.5518 4.55327 14.5518 4.72768 14.5518 4.9021C14.5518 10.2398 11.252 16.3904 5.22149 16.3904C3.36356 16.3904 1.63753 15.7278 0.185059 14.5771C0.448849 14.6142 0.702868 14.6272 0.977243 14.6272C2.51032 14.6272 3.92127 13.9897 5.04889 12.9021C3.607 12.865 2.39878 11.7022 1.98192 10.1024C2.18465 10.1395 2.38819 10.1646 2.6015 10.1646C2.89542 10.1646 3.19096 10.1145 3.46534 10.0273C1.96157 9.65238 0.835578 8.02752 0.835578 6.06486V6.01474C1.27279 6.31445 1.78001 6.5019 2.31736 6.52696C1.43399 5.80324 0.855118 4.5653 0.855118 3.16497C0.855118 2.41519 1.01714 1.72756 1.30128 1.12813C2.91577 3.57695 5.3428 5.17775 8.06375 5.35317C8.01327 5.05245 7.98233 4.74071 7.98233 4.42797C7.98233 2.20268 9.44457 0.390381 11.2618 0.390381C12.2062 0.390381 13.0587 0.877538 13.6579 1.66541C14.3988 1.48999 15.1087 1.15219 15.7389 0.690093C15.4955 1.62732 14.9768 2.41519 14.297 2.91538C14.9573 2.82717 15.5972 2.60263 16.1851 2.28989C15.7389 3.08979 15.1812 3.80248 14.5413 4.37785Z" fill="#2C2C2C"/>
</svg>
