<svg width="18" height="16" viewBox="0 0 18 16" fill="none" xmlns="http://www.w3.org/2000/svg">
<path d="M17.75 5.62952C17.75 11.0983 9.64141 15.5248 9.29609 15.7076C9.20508 15.7566 9.10335 15.7822 9 15.7822C8.89665 15.7822 8.79492 15.7566 8.70391 15.7076C8.35859 15.5248 0.25 11.0983 0.25 5.62952C0.251447 4.34532 0.762235 3.11413 1.6703 2.20607C2.57837 1.298 3.80955 0.787214 5.09375 0.785767C6.70703 0.785767 8.11953 1.47952 9 2.65217C9.88047 1.47952 11.293 0.785767 12.9062 0.785767C14.1904 0.787214 15.4216 1.298 16.3297 2.20607C17.2378 3.11413 17.7486 4.34532 17.75 5.62952Z" fill="#251ADD"/>
</svg>
